<svg version="1.1" xmlns="http://www.w3.org/2000/svg" width="21" height="24" viewBox="0 0 21 24"><path fill="#00de7a" d="M15.319 9.786l1.637-2.835c0.015-0.038 0.024-0.082 0.024-0.128 0-0.192-0.155-0.347-0.347-0.347-0.022 0-0.043 0.002-0.063 0.006l0.002-0c-0.084 0.016-0.156 0.060-0.206 0.122l-0 0.001-1.657 2.879c-1.237-0.569-2.685-0.901-4.21-0.901s-2.972 0.332-4.274 0.927l0.064-0.026-1.657-2.872c-0.064-0.078-0.16-0.127-0.268-0.127-0.191 0-0.346 0.155-0.346 0.346 0 0.046 0.009 0.090 0.025 0.13l-0.001-0.002 1.637 2.829c-2.81 1.553-4.743 4.393-5.008 7.703l-0.002 0.034h19.665c-0.269-3.344-2.203-6.184-4.964-7.712l-0.050-0.025zM5.97 14.722c-0.452-0.002-0.818-0.368-0.818-0.821 0-0.226 0.091-0.43 0.238-0.578l-0 0c0.148-0.148 0.353-0.239 0.579-0.239 0.452 0 0.819 0.367 0.819 0.819s-0.366 0.819-0.818 0.819h-0zM15.023 14.722c-0 0-0.001 0-0.002 0-0.453 0-0.819-0.367-0.819-0.819s0.366-0.819 0.818-0.819h0c0 0 0.001 0 0.001 0 0.453 0 0.819 0.367 0.819 0.819s-0.366 0.819-0.818 0.819h-0z"></path></svg>
