<svg xmlns="http://www.w3.org/2000/svg" fill="none" viewBox="0 0 70 70" id="dotcover"><defs><linearGradient id="dotcover_dotcover_svg__a" x1="37.049" x2="23.558" y1="55.637" y2="5.422" gradientUnits="userSpaceOnUse"><stop offset=".048" stop-color="#6B57FF"></stop><stop offset=".12" stop-color="#7556FE"></stop><stop offset=".241" stop-color="#8F53FB"></stop><stop offset=".395" stop-color="#BA4DF5"></stop><stop offset=".576" stop-color="#F446EE"></stop><stop offset=".608" stop-color="#FF45ED"></stop><stop offset=".69" stop-color="#FF3BBE"></stop><stop offset=".771" stop-color="#FF318C"></stop><stop offset=".995" stop-color="#FC801D"></stop></linearGradient><linearGradient id="dotcover_dotcover_svg__b" x1="67.819" x2="41.488" y1="48.799" y2="40.13" gradientUnits="userSpaceOnUse"><stop offset=".027" stop-color="#6B57FF"></stop><stop offset=".388" stop-color="#FF45ED"></stop><stop offset=".487" stop-color="#FF4DD1"></stop><stop offset=".702" stop-color="#FE6189"></stop><stop offset="1" stop-color="#FC801D"></stop></linearGradient></defs><path fill="url(#dotcover_dotcover_svg__a)" d="M42.7984 0L0.00328125 4.81631L0 26.8279L10.7335 62.553L64.552 48.9134L42.7984 0Z"></path><path fill="url(#dotcover_dotcover_svg__b)" d="M65.9427 22.2088L49.0842 14.1337L25.4188 56.7263L31.8489 65.4527L48.2409 70L64.0216 60.0453L70 41.3105L65.9427 22.2088Z"></path><path fill="#000" d="M56 14H14V56H56V14Z"></path><path fill="#FFF" d="M34.4166 48.65H18.6666V51.3333H34.4166V48.65Z"></path><path fill="#FFF" d="M19 19H25.1485C30.1034 19 33.5267 22.4009 33.5267 26.8377V26.8828C33.5267 31.3196 30.1034 34.7655 25.1485 34.7655H19V19ZM22.4684 22.1307V31.635H25.1486C27.9864 31.635 29.9007 29.7205 29.9007 26.9279V26.8828C29.9329 26.2503 29.832 25.618 29.6046 25.0269C29.3772 24.4357 29.0283 23.8989 28.5804 23.451C28.1325 23.0032 27.5957 22.6542 27.0045 22.4268C26.4134 22.1994 25.7811 22.0985 25.1486 22.1307H22.4684Z"></path><path fill="#FFF" d="M35.1846 27.0028V26.9575C35.1652 25.8703 35.3662 24.7903 35.7755 23.7828C36.1848 22.7753 36.7938 21.8611 37.566 21.0953C38.3381 20.3296 39.2573 19.7281 40.2682 19.3273C41.2791 18.9264 42.3607 18.7343 43.4478 18.7628C46.4355 18.7628 48.2242 19.7587 49.6954 21.2073L47.4767 23.7656C46.2544 22.6565 45.0096 21.9774 43.4246 21.9774C40.7537 21.9774 38.8293 24.1962 38.8293 26.9123V26.9576C38.8293 29.6743 40.7079 31.9377 43.4246 31.9377C45.2359 31.9377 46.345 31.2134 47.5899 30.0817L49.8086 32.3231C49.0108 33.2562 48.0114 33.9958 46.8858 34.4861C45.7603 34.9763 44.538 35.2043 43.3114 35.1529C42.2374 35.1703 41.1709 34.9712 40.1755 34.5674C39.1802 34.1637 38.2763 33.5636 37.5178 32.803C36.7594 32.0424 36.1619 31.1368 35.761 30.1403C35.3602 29.1438 35.1641 28.0767 35.1846 27.0028"></path></svg>