<svg xmlns="http://www.w3.org/2000/svg" fill="none" viewBox="0 0 70 70" id="dotmemory"><defs><linearGradient id="dotmemory_dotmemory_svg__a" x1="18.757" x2="30.724" y1="19.283" y2="69.379" gradientUnits="userSpaceOnUse"><stop offset="0" stop-color="#6B57FF"></stop><stop offset=".13" stop-color="#9A51F9"></stop><stop offset=".268" stop-color="#C64CF4"></stop><stop offset=".392" stop-color="#E548F0"></stop><stop offset=".497" stop-color="#F846EE"></stop><stop offset=".57" stop-color="#FF45ED"></stop><stop offset=".633" stop-color="#FF57C9"></stop><stop offset=".814" stop-color="#FE8A65"></stop><stop offset=".941" stop-color="#FDAA26"></stop><stop offset="1" stop-color="#FDB60D"></stop></linearGradient><linearGradient id="dotmemory_dotmemory_svg__b" x1="51.758" x2="39.877" y1="35.768" y2="1.731" gradientUnits="userSpaceOnUse"><stop offset="0" stop-color="#6B57FF"></stop><stop offset=".138" stop-color="#8953FB"></stop><stop offset=".437" stop-color="#D64AF2"></stop><stop offset=".588" stop-color="#FF45ED"></stop><stop offset=".968" stop-color="#FDB60D"></stop></linearGradient><linearGradient id="dotmemory_dotmemory_svg__c" x1="26.353" x2="36.21" y1="53.604" y2="30.222" gradientUnits="userSpaceOnUse"><stop offset=".118" stop-color="#FF45ED"></stop><stop offset=".197" stop-color="#DF49F1"></stop><stop offset=".304" stop-color="#BC4DF5"></stop><stop offset=".416" stop-color="#9E51F9"></stop><stop offset=".535" stop-color="#8854FC"></stop><stop offset=".663" stop-color="#7855FD"></stop><stop offset=".807" stop-color="#6E57FF"></stop><stop offset="1" stop-color="#6B57FF"></stop></linearGradient></defs><path fill="url(#dotmemory_dotmemory_svg__a)" d="M7.97508 65.1476L0 37.6507L49.5529 51.3095L44.2657 70L7.97508 65.1476Z"></path><path fill="url(#dotmemory_dotmemory_svg__b)" d="M23.4774 0.0896876L42.1193 5.42172L63.1729 0L67.3493 28.8778L19.955 13.125L23.4774 0.0896876Z"></path><path fill="url(#dotmemory_dotmemory_svg__c)" d="M70 46.1135L67.3493 28.8776L24.4705 14.6255L0.0896875 19.8585L0 37.6506L49.5529 51.3093L70 46.1135Z"></path><path fill="#000" d="M56 14H14V56H56V14Z"></path><path fill="#FFF" d="M34.4166 48.65H18.6666V51.3333H34.4166V48.65Z"></path><path fill="#FFF" d="M19 19H25.1307C30.0712 19 33.4846 22.3911 33.4846 26.8149V26.86C33.4846 31.2839 30.0712 34.7198 25.1307 34.7198H19V19ZM22.4584 22.1216V31.5984H25.1307C27.9603 31.5984 29.8691 29.6894 29.8691 26.9049V26.86C29.9012 26.2293 29.8006 25.5988 29.5739 25.0094C29.3471 24.42 28.9992 23.8847 28.5526 23.4381C28.1061 22.9916 27.5708 22.6437 26.9813 22.4169C26.3919 22.1901 25.7615 22.0895 25.1307 22.1216H22.4584Z"></path><path fill="#FFF" d="M34.6927 19.0094L38.4209 19.0099L42.5551 25.6573L46.6861 19.0099L50.4138 19.0104L50.4133 34.73H46.9765L46.977 24.4688L42.5545 31.183H42.4621L38.085 24.5352L38.084 34.7295H34.6921L34.6927 19.0094Z"></path></svg>