<svg version="1.1" xmlns="http://www.w3.org/2000/svg" width="21" height="32" viewBox="0 0 21 32"><path fill="#0acf83" d="M5.333 32c2.944 0 5.333-2.389 5.333-5.333v-5.333h-5.333c-2.944 0-5.333 2.389-5.333 5.333s2.389 5.333 5.333 5.333z"></path><path fill="#a259ff" d="M0 16c0-2.944 2.389-5.333 5.333-5.333h5.333v10.667h-5.333c-2.944 0-5.333-2.389-5.333-5.333z"></path><path fill="#f24e1e" d="M0 5.333c0-2.944 2.389-5.333 5.333-5.333h5.333v10.667h-5.333c-2.944 0-5.333-2.389-5.333-5.333z"></path><path fill="#ff7262" d="M10.667 0h5.333c2.944 0 5.333 2.389 5.333 5.333s-2.389 5.333-5.333 5.333h-5.333v-10.667z"></path><path fill="#1abcfe" d="M21.333 16c0 2.944-2.389 5.333-5.333 5.333s-5.333-2.389-5.333-5.333 2.389-5.333 5.333-5.333 5.333 2.389 5.333 5.333z"></path></svg>
