<svg width="16px" height="16px" viewBox="0 0 16 16" xmlns="http://www.w3.org/2000/svg" xmlns:xlink="http://www.w3.org/1999/xlink"><defs><linearGradient x1="0%" y1="0%" x2="55.0838079%" y2="100%" id="rlkb3"><stop stop-color="#FFE959" offset="0%"></stop><stop stop-color="#FFBA0D" offset="100%"></stop></linearGradient><circle id="rlkb2" cx="8" cy="8" r="8"></circle><linearGradient x1="18.9450403%" y1="81.6546226%" x2="24.6655108%" y2="5.46747714%" id="rlkb1"><stop stop-color="#FF9A0D" stop-opacity="0" offset="0%"></stop><stop stop-color="#FF9A0D" offset="100%"></stop></linearGradient><linearGradient x1="50%" y1="0%" x2="50%" y2="98.666958%" id="rlkb0"><stop stop-color="#FFFFFF" offset="0%"></stop><stop stop-color="#FFFFFF" stop-opacity="0.636172421" offset="100%"></stop></linearGradient></defs><g id="coinBottomBar_svg__\u4E2A\u4EBA2\u671F" stroke="none" stroke-width="1" fill="none" fill-rule="evenodd" opacity="0.85"><g id="coinBottomBar_svg__hover\u9001\u5E01" transform="translate(-1306.000000, -811.000000)"><g id="coinBottomBar_svg__\u7F16\u7EC4-2" transform="translate(258.000000, 798.000000)"><g id="coinBottomBar_svg__\u7F16\u7EC4-4\u5907\u4EFD" transform="translate(1048.000000, 13.000000)"><g id="coinBottomBar_svg__\u692D\u5706\u5F62"><mask id="coinBottomBar_svg__mask-3" fill="white"><use xlink:href="#rlkb2"></use></mask><use id="coinBottomBar_svg__\u8499\u7248" fill="url(#rlkb3)" xlink:href="#rlkb2"></use><circle fill="url(#rlkb1)" opacity="0.238739014" mask="url(#coinBottomBar_svg__mask-3)" cx="8" cy="8" r="5.71428571"></circle></g><path d="M8.27454527,5.366834 C7.45542772,5.59125633 6.82964622,5.65054275 6.29336679,5.64621254 L6.29336679,5.64621254 L6.27714454,5.64605216 C5.64160268,5.63936974 4.89508983,5.48032819 4.80886693,5.46486062 L4.80886693,5.46486062 L4.80645578,5.46443294 C4.73500843,5.45211947 4.67825949,5.47257658 4.63917949,5.52293529 L4.63917949,5.52293529 L4.63580388,5.52746151 C4.52323188,5.68188774 4.46000175,5.77524558 4.33128465,6.02705692 L4.33128465,6.02705692 L4.3251121,6.03917437 C4.30256298,6.08326051 4.32185222,6.15359519 4.38930669,6.17553134 L4.38930669,6.17553134 L4.39399397,6.17695693 C4.45718552,6.19479453 5.31538307,6.44461005 6.14647923,6.46089733 L6.14647923,6.46089733 L6.17167098,6.46134283 C7.170082,6.50134824 7.85093428,6.3016954 8.06489052,6.24661445 L8.06489052,6.24661445 L8.07123668,6.24499285 C8.27406303,6.19329767 9.02317993,5.97694769 9.87572573,5.9652401 L9.87572573,5.9652401 L9.9015926,5.96493716 C10.8577988,5.95647276 11.4204659,6.11923865 11.521445,6.13627436 L11.521445,6.13627436 L11.524377,6.1367555 C11.5954771,6.14771466 11.6507408,6.12968104 11.695704,6.07474266 L11.695704,6.07474266 L11.6995426,6.06994914 C11.7657433,5.98484186 11.929181,5.72396025 11.9864315,5.58751418 L11.9864315,5.58751418 L11.989267,5.5806892 C12.0141308,5.51938915 11.9964811,5.4597107 11.9291424,5.43137725 L11.9291424,5.43137725 L11.9244937,5.42950617 C11.6993497,5.34254563 11.0015036,5.17008578 10.3058758,5.14759722 L10.3058758,5.14759722 L10.2847926,5.14695571 C10.2070763,5.14478169 10.1233031,5.14316009 10.0340518,5.1428928 L10.0340518,5.1428928 L10.0095738,5.14285715 C9.552766,5.14283934 8.95520465,5.18034998 8.27454527,5.366834 L8.27454527,5.366834 Z M10.0637572,6.94044549 C9.60014037,6.94046331 9.02532104,6.97025798 8.08173003,7.21319507 L8.08173003,7.21319507 L8.05302764,7.2206081 C7.22202792,7.44709753 6.60934382,7.45171285 6.07362377,7.4345524 L6.07362377,7.4345524 L6.05742081,7.43403563 C5.4646432,7.41454079 4.67222196,7.22219406 4.58507318,7.20604934 L4.58507318,7.20604934 L4.58266202,7.20562166 C4.51115681,7.19330819 4.45652969,7.21912906 4.417604,7.26989762 L4.417604,7.26989762 L4.41430554,7.2742991 C4.3016178,7.42883225 4.25246882,7.50299819 4.12311518,7.75869424 L4.12311518,7.75869424 L4.11719339,7.77043747 C4.09219453,7.81862217 4.11046144,7.88519687 4.17482964,7.91067916 L4.17482964,7.91067916 L4.1793819,7.91238986 C4.27615601,7.94663948 5.11321255,8.20944562 5.92858798,8.24939758 L5.92858798,8.24939758 L5.9532975,8.25052022 C6.91829956,8.32236958 7.69428637,8.13442434 7.84528253,8.09846402 L7.84528253,8.09846402 L7.84966119,8.09743048 C8.0539921,8.04890721 8.88476035,7.81258126 9.65634921,7.77225509 L9.65634921,7.77225509 L9.67972777,7.77107899 C10.5242107,7.73121613 11.2284608,7.87446936 11.31397,7.88870737 L11.31397,7.88870737 L11.3163619,7.88908158 C11.4003472,7.9024286 11.4497469,7.86892741 11.482095,7.82781717 L11.482095,7.82781717 L11.4845254,7.82464525 C11.5271932,7.76844166 11.7143567,7.47723078 11.7792457,7.31163155 L11.7792457,7.31163155 L11.7816762,7.30532334 C11.8025278,7.25040278 11.7841645,7.18862159 11.717443,7.16438669 L11.717443,7.16438669 L11.7127171,7.16274727 C11.3197761,7.03480123 10.6505359,6.94247694 10.0827186,6.94048113 L10.0827186,6.94048113 L10.0640466,6.94044549 L10.0637572,6.94044549 Z M10.025796,8.67903252 C9.5604624,8.67903252 8.98267253,8.72024968 8.0337384,8.96692892 L8.0337384,8.96692892 C7.20273868,9.19341835 6.5893023,9.18939108 6.05356296,9.17207025 L6.05356296,9.17207025 L6.03736,9.1715713 C5.4445631,9.15205863 4.63188816,8.95848234 4.48050621,8.91885115 L4.48050621,8.91885115 L4.47614684,8.91769286 C4.40599188,8.89912465 4.3539688,8.93346337 4.31517814,8.98494472 L4.31517814,8.98494472 L4.31228475,8.98884725 C4.19957773,9.14339822 4.14608867,9.2151763 4.01652285,9.47094363 L4.01652285,9.47094363 L4.01067821,9.48252649 C3.98571793,9.53065772 4.00431276,9.59038963 4.06860379,9.61556899 L4.06860379,9.61556899 L4.0732525,9.61731532 C4.14682166,9.64335003 4.43806988,9.73850766 4.73151708,9.80584862 L4.73151708,9.80584862 L4.74175967,9.80818301 C4.88143305,9.83993786 5.23942204,9.88974415 5.39541412,10.0638791 L5.39541412,10.0638791 L5.40168312,10.0710961 C5.47411422,10.1565954 5.55954626,10.2596115 5.48657506,10.5558654 L5.48657506,10.5558654 L5.48422178,10.5652743 C5.34537783,11.1115575 5.12042672,11.1887528 5.26075594,11.3499506 L5.26075594,11.3499506 L5.2651346,11.354851 C5.3115638,11.4061185 5.37647209,11.4269676 5.44926968,11.4284645 L5.44926968,11.4284645 L5.45634883,11.4285714 L5.45924221,11.4285714 C5.6906745,11.4277517 5.99642824,11.2398421 6.05273353,11.2086753 L6.05273353,11.2086753 L6.05452743,11.2076774 C6.13480924,11.1638942 6.41413671,10.9938222 6.55234411,10.910782 L6.55234411,10.910782 L6.55870956,10.9069508 C6.87603684,10.7164751 7.89753708,9.90895388 9.20797084,9.63164243 L9.20797084,9.63164243 L9.24778383,9.62337405 C10.3061265,9.40910899 11.12617,9.60633834 11.1908082,9.61711931 L11.1908082,9.61711931 L11.1925249,9.6173866 C11.2491389,9.62536987 11.3110573,9.61350189 11.3567535,9.56426583 L11.3567535,9.56426583 L11.3609779,9.55952577 C11.4205045,9.49077705 11.6257998,9.166261 11.6792696,9.02416606 L11.6792696,9.02416606 L11.6812757,9.01864193 C11.7014329,8.96266999 11.6892036,8.90140558 11.6195887,8.87750925 L11.6195887,8.87750925 L11.6148821,8.87599457 C11.2686981,8.76941446 10.5735525,8.6819906 10.0588963,8.6791038 L10.0588963,8.6791038 L10.0430599,8.67903252 L10.025796,8.67903252 Z" id="coinBottomBar_svg__Fill-1" fill="url(#rlkb0)"></path></g></g></g></g></svg>