<svg width="16" height="16" xmlns="http://www.w3.org/2000/svg" xmlns:xlink="http://www.w3.org/1999/xlink"><defs><linearGradient x1="50%" y1="4.91%" x2="50%" y2="99.01%" id="a"><stop stop-color="#FBED66" offset="0%"/><stop stop-color="#F9AC21" offset="100%"/></linearGradient><linearGradient x1="50%" y1="0%" x2="50%" y2="100%" id="b"><stop stop-color="#A74A1D" offset="0%"/><stop stop-color="#F6A324" offset="53.088%"/><stop stop-color="#FDEA76" offset="100%"/></linearGradient><linearGradient x1="49.999%" y1="100%" x2="49.999%" y2=".001%" id="d"><stop stop-color="#FBAA21" offset="0%"/><stop stop-color="#FDED7B" offset="100%"/></linearGradient><linearGradient x1="50%" y1="-.001%" x2="50%" y2="100.004%" id="g"><stop stop-color="#FBEF62" offset="0%"/><stop stop-color="#FBC12A" offset="100%"/></linearGradient><linearGradient x1="49.998%" y1="-.001%" x2="49.998%" y2="99.999%" id="j"><stop stop-color="#FDFDA1" offset="0%"/><stop stop-color="#FDFD8A" stop-opacity=".214" offset="99.913%"/></linearGradient><path d="M0 5.992a5.992 5.992 0 0 0 11.983 0A5.992 5.992 0 1 0 0 5.992" id="c"/><path d="M1.841.612 1.833.61a.993.993 0 0 0-.828-.453C.45.157 0 .624 0 1.2c0 .386.205.72.506.9A3.462 3.462 0 0 0 .13 3.647c0 1.887 1.645 3.193 3.674 3.193s3.674-1.306 3.674-3.193c0-.54-.136-1.069-.376-1.549.3-.18.505-.513.505-.9 0-.575-.45-1.042-1.005-1.042a.994.994 0 0 0-.828.453c-.003 0-.005 0-.008.002A3.509 3.509 0 0 0 3.804 0 3.51 3.51 0 0 0 1.84.612" id="f"/><path d="M1.51.602a.409.409 0 0 1-.266.096.437.437 0 0 1-.377-.24C.774.285.631.18.484.18.22.18 0 .502 0 .882c0 .26.102.497.268.62a.526.526 0 0 1 .156.612c-.133.33-.222.68-.267 1.043.846.439 1.841.67 2.887.67s2.04-.231 2.887-.67a4.193 4.193 0 0 0-.267-1.043.526.526 0 0 1 .156-.611c.166-.124.268-.362.268-.621 0-.387-.217-.702-.483-.702-.148 0-.291.104-.384.278a.454.454 0 0 1-.304.234.407.407 0 0 1-.338-.09C4.11.209 3.58 0 3.044 0c-.535 0-1.066.208-1.535.602" id="i"/></defs><g fill="none" fill-rule="evenodd"><path d="M0 8a8 8 0 1 0 16 0A8 8 0 0 0 0 8" fill="url(#a)"/><path d="M0 6.45a6.45 6.45 0 0 0 12.9 0 6.45 6.45 0 0 0-12.9 0" transform="translate(1.55 1.55)" fill="url(#b)"/><g transform="translate(2.008 2.008)"><mask id="e" fill="#fff"><use xlink:href="#c"/></mask><path d="M0 5.992a5.992 5.992 0 0 0 11.983 0A5.992 5.992 0 1 0 0 5.992" fill="url(#d)" mask="url(#e)"/></g><path d="M8 12.897c-1.747 0-3.366-.437-4.697-1.18A5.98 5.98 0 0 0 8 13.993c1.904 0 3.6-.89 4.697-2.274-1.33.742-2.95 1.18-4.697 1.18" fill="#EE871F"/><path d="M12.002 6.109c0-.607-.473-1.098-1.058-1.098-.361 0-.68.19-.87.477l-.009.001A3.694 3.694 0 0 0 8 4.846c-.76 0-1.468.242-2.065.643l-.008-.001a1.046 1.046 0 0 0-.871-.477c-.585 0-1.058.491-1.058 1.098 0 .406.215.756.532.946a3.642 3.642 0 0 0-.396 1.629c0 1.986 1.73 3.36 3.866 3.36 2.135 0 3.866-1.374 3.866-3.36 0-.568-.143-1.124-.396-1.629a1.1 1.1 0 0 0 .532-.946" fill="#B95515"/><g transform="translate(4.196 4.544)"><mask id="h" fill="#fff"><use xlink:href="#f"/></mask><path d="M1.841.612 1.833.61a.993.993 0 0 0-.828-.453C.45.157 0 .624 0 1.2c0 .386.205.72.506.9A3.462 3.462 0 0 0 .13 3.647c0 1.887 1.645 3.193 3.674 3.193s3.674-1.306 3.674-3.193c0-.54-.136-1.069-.376-1.549.3-.18.505-.513.505-.9 0-.575-.45-1.042-1.005-1.042a.994.994 0 0 0-.828.453c-.003 0-.005 0-.008.002A3.509 3.509 0 0 0 3.804 0 3.51 3.51 0 0 0 1.84.612" fill="url(#g)" mask="url(#h)"/></g><path d="M5.202 4.809c-.496 0-.898.42-.898.935 0 .33.174.64.453.808.048.029.066.09.04.14a3.375 3.375 0 0 0-.364 1.5c0 1.76 1.534 3.086 3.567 3.086 2.033 0 3.567-1.327 3.567-3.086 0-.505-.126-1.024-.365-1.5a.107.107 0 0 1 .041-.14.945.945 0 0 0 .453-.808c0-.516-.402-.935-.898-.935a.888.888 0 0 0-.738.405.11.11 0 0 1-.064.045.126.126 0 0 1-.094-.014A3.405 3.405 0 0 0 8 4.652c-.667 0-1.325.205-1.902.593a.11.11 0 0 1-.087.015.131.131 0 0 1-.07-.046.888.888 0 0 0-.74-.405M8 11.493c-2.156 0-3.781-1.42-3.781-3.301 0-.508.12-1.028.345-1.51a1.163 1.163 0 0 1-.475-.938c0-.634.5-1.15 1.113-1.15.333 0 .647.155.858.42A3.609 3.609 0 0 1 8 4.436c.679 0 1.348.199 1.94.576a1.1 1.1 0 0 1 .858-.419c.614 0 1.113.516 1.113 1.15 0 .372-.18.723-.475.937.226.483.345 1.003.345 1.511 0 1.882-1.625 3.3-3.781 3.3" fill="#DB8128"/><g transform="translate(4.956 5.025)"><mask id="k" fill="#fff"><use xlink:href="#i"/></mask><path d="M1.51.602a.409.409 0 0 1-.266.096.437.437 0 0 1-.377-.24C.774.285.631.18.484.18.22.18 0 .502 0 .882c0 .26.102.497.268.62a.526.526 0 0 1 .156.612c-.133.33-.222.68-.267 1.043.846.439 1.841.67 2.887.67s2.04-.231 2.887-.67a4.193 4.193 0 0 0-.267-1.043.526.526 0 0 1 .156-.611c.166-.124.268-.362.268-.621 0-.387-.217-.702-.483-.702-.148 0-.291.104-.384.278a.454.454 0 0 1-.304.234.407.407 0 0 1-.338-.09C4.11.209 3.58 0 3.044 0c-.535 0-1.066.208-1.535.602" fill="url(#j)" mask="url(#k)"/></g></g></svg>